# xmcd
#
# Track frame offsets:
#	150
#	16086
#	34349
#	50468
#	69603
#	84957
#	96512
#	112755
#	128481
#	142287
#	158108
#	172767
#	187411
#	206170
#	221892
#	237483
#	256092
#
# Disc length: 3652 seconds
#
# Revision: 0
# Processed by: cddbd v1.4PL0 Copyright (c) Steve Scherf et al.
# Submitted via: audiograbber 1.82.00
#
DISCID=f40e4211
DTITLE=Collection - Line Dance CD2
DYEAR=1900
DGENRE=
TTITLE0=Rick Vincent - Hallo She Lied
TTITLE1=Eric Clapton - Tulsa Time
TTITLE2=Rednex - Pop In An Old Oak
TTITLE3=Dave Sheriff - Red Hot Salsa
TTITLE4=Rick Van Shelton - Crime Of Passion
TTITLE5=Steve Earl - Guitar Town
TTITLE6=Shania Twain - Honey I'm Home
TTITLE7=Rednex - Ridin Alone
TTITLE8=Tracy Byrd - Watermelon Crawl
TTITLE9=Jo Dee Messina - Heads Carolina, Tails Califonia
TTITLE10=Rednex - Cotton Eye Joe
TTITLE11=Alan Jackson - Summertime Blues
TTITLE12=Clay Walker - Live, Laugh, Love
TTITLE13=George Dumas - Tricky Moon
TTITLE14=Cooter Lee - Jam Up And Jelly Tight
TTITLE15=Alan Jackson - Chattahoochee
TTITLE16=The Grid - Swamp Thing
EXTD=
EXTT0=
EXTT1=
EXTT2=
EXTT3=
EXTT4=
EXTT5=
EXTT6=
EXTT7=
EXTT8=
EXTT9=
EXTT10=
EXTT11=
EXTT12=
EXTT13=
EXTT14=
EXTT15=
EXTT16=
PLAYORDER=
